<!DOCTYPE svg PUBLIC "-//W3C//DTD SVG 1.1//EN" "http://www.w3.org/Graphics/SVG/1.1/DTD/svg11.dtd">

<!-- Uploaded to: SVG Repo, www.svgrepo.com, Transformed by: SVG Repo Mixer Tools -->
<svg version="1.1" id="_x32_" xmlns="http://www.w3.org/2000/svg" xmlns:xlink="http://www.w3.org/1999/xlink" width="70" height="70" viewBox="-51.2 -51.2 614.40 614.40" xml:space="preserve" fill="#000000" stroke="#000000" transform="matrix(1, 0, 0, 1, 0, 0)rotate(0)">

<g id="SVGRepo_bgCarrier" stroke-width="0" transform="translate(0,0), scale(1)">

<path transform="translate(-51.2, -51.2), scale(19.2)" d="M16,31.858296881895512C18.873282703393354,32.39268985430834,20.489846278499915,28.39149668063555,22.925356659201157,26.776065305404735C25.312819941007547,25.19250272928009,28.644157583344263,24.897743655767453,30.159608547005476,22.466476551721794C31.718224255206295,19.965959418496617,31.465575106738704,16.75253329919225,30.985234395210725,13.845448563541808C30.511895155292148,10.980737648711248,29.561812451788416,8.071526381029177,27.45158222928862,6.077147512898927C25.421139558231225,4.1581758704068745,22.54359135629759,3.1716141233606057,19.75037828419639,3.227384536504996C17.271025453187764,3.276888290120198,15.53804906153424,5.625730856544081,13.170115073250635,6.362297017444636C10.859873908354063,7.080917331187305,8.229169134666765,6.232631401406513,6.144032038483928,7.4597551463599245C3.6718895683491373,8.91463537057333,1.2763480075707194,11.00194496603688,0.5646579473379294,13.780732852439376C-0.16438640926389392,16.62728044383414,0.3558016570228242,20.08106827157002,2.361536427440745,22.22847761650286C4.334205312243699,24.340485475249533,8.192612899341096,22.80813397645027,10.553418207288766,24.475046698353715C13.103348636335724,26.27549651005047,12.931126275963086,31.287526539871433,16,31.858296881895512" fill="#7ed0ec" strokewidth="0"/>

</g>

<g id="SVGRepo_tracerCarrier" stroke-linecap="round" stroke-linejoin="round" stroke="#CCCCCC" stroke-width="1.024"/>

<g id="SVGRepo_iconCarrier"> <style type="text/css">  .st0{fill:#141C22;}  </style> <g> <polygon class="st0" points="204.344,155.188 249.469,200.297 409.344,40.422 268.031,40.422 316.063,88.453 249.469,155.031 204.953,110.516 41.906,264.969 63.906,288.219 "/> <polygon class="st0" points="512,102.313 276.031,330.281 212.656,266.906 0,471.578 512,471.578 "/> </g> </g>

</svg>